<svg xmlns="http://www.w3.org/2000/svg" viewBox="0 0 170 150" fill="none">
  <defs>
    <linearGradient id="body" x1="64" y1="26" x2="110" y2="126" gradientUnits="userSpaceOnUse">
      <stop stop-color="#2f96ca"/>
      <stop offset="1" stop-color="#115a8b"/>
    </linearGradient>
    <linearGradient id="chest" x1="86" y1="61" x2="93" y2="122" gradientUnits="userSpaceOnUse">
      <stop stop-color="#f7d670"/>
      <stop offset="1" stop-color="#e89234"/>
    </linearGradient>
    <linearGradient id="wing" x1="30" y1="56" x2="132" y2="93" gradientUnits="userSpaceOnUse">
      <stop stop-color="#49b6df"/>
      <stop offset=".55" stop-color="#1d7fb7"/>
      <stop offset="1" stop-color="#124f80"/>
    </linearGradient>
  </defs>
  <ellipse cx="86" cy="132" rx="44" ry="8" fill="#123142" opacity=".12"/>
  <path d="M69 111c-12 8-26 8-37 1 12-4 22-11 29-22 4 8 7 14 8 21Z" fill="#0e527d"/>
  <path d="M94 115c13 5 28 2 38-8-12-1-24-8-31-18-4 8-7 17-7 26Z" fill="#0e527d"/>
  <path d="M61 60c-21-6-39-3-52 8 20 13 53 18 89 12L61 60Z" fill="url(#wing)"/>
  <path d="M27 66c-8 3-14 7-18 13 12 3 23 1 34-5l-16-8Z" fill="#f2c15a"/>
  <path d="M62 30c18-13 49-5 60 17 11 22 3 68-25 77-30 10-56-16-55-50 1-19 8-34 20-44Z" fill="url(#body)"/>
  <path d="M75 63c11-9 29-8 38 2 3 23-6 49-25 56-14-6-20-31-13-58Z" fill="url(#chest)"/>
  <path d="M73 29c16-12 39-8 51 8-11-1-21 0-31 5-12 5-22 3-31-2 2-4 6-8 11-11Z" fill="#3ba4d6"/>
  <path d="M102 41c13 0 24 7 29 17-9 2-19 0-28-5-6-4-12-5-19-3 3-6 9-9 18-9Z" fill="#fff7e3"/>
  <path d="M122 54c13 3 22 9 25 17-9 5-22 3-31-4 4-3 6-8 6-13Z" fill="#27313b"/>
  <path d="M122 60c8 1 15 5 19 9-6 2-15 1-23-3 2-2 3-4 4-6Z" fill="#f2c15a"/>
  <circle cx="104" cy="49" r="4" fill="#17242b"/>
  <circle cx="105" cy="48" r="1.3" fill="#fff"/>
  <path d="M88 43c-7 5-15 7-24 4" stroke="#103d5f" stroke-width="3" stroke-linecap="round" opacity=".42"/>
  <path d="M41 66c13 6 29 9 47 8" stroke="#91d6ed" stroke-width="4" stroke-linecap="round" opacity=".5"/>
  <path d="M47 75c11 4 24 6 39 5" stroke="#f7d670" stroke-width="3" stroke-linecap="round" opacity=".9"/>
  <path d="M84 123c-4 6-4 10 1 13M96 120c-1 7 1 11 7 14" stroke="#795428" stroke-width="4" stroke-linecap="round"/>
  <path d="M78 22c2-7 8-11 16-12-2 6-7 11-15 15" fill="#2f96ca"/>
</svg>
