<svg width="980" height="840" viewBox="0 0 980 840" fill="none" xmlns="http://www.w3.org/2000/svg">
  <defs>
    <linearGradient id="bg" x1="106" y1="90" x2="864" y2="758" gradientUnits="userSpaceOnUse">
      <stop stop-color="#F9FBFF"/>
      <stop offset="1" stop-color="#F4F8FB"/>
    </linearGradient>
    <filter id="blur" x="0" y="0" width="980" height="840" filterUnits="userSpaceOnUse">
      <feGaussianBlur stdDeviation="36"/>
    </filter>
    <filter id="shadow" x="92" y="90" width="796" height="658" filterUnits="userSpaceOnUse">
      <feDropShadow dx="0" dy="22" stdDeviation="24" flood-color="#102033" flood-opacity="0.12"/>
    </filter>
  </defs>
  <rect width="980" height="840" rx="40" fill="url(#bg)"/>
  <g opacity="0.82" filter="url(#blur)">
    <circle cx="236" cy="162" r="110" fill="#1695E0" fill-opacity="0.18"/>
    <circle cx="764" cy="198" r="120" fill="#7761D6" fill-opacity="0.14"/>
    <circle cx="760" cy="684" r="128" fill="#58B63F" fill-opacity="0.14"/>
  </g>
  <g filter="url(#shadow)">
    <rect x="124" y="124" width="732" height="590" rx="34" fill="white" fill-opacity="0.82" stroke="white" stroke-opacity="0.72"/>
    <path d="M280 246C280 212.863 306.863 186 340 186H640C673.137 186 700 212.863 700 246V254.49C700 289.432 684.885 322.669 658.52 345.709L520 466.77L381.48 345.709C355.115 322.669 340 289.432 340 254.49V246Z" fill="#0F2E4C"/>
    <path d="M396 284L518 404L654 280" stroke="#58B63F" stroke-width="26" stroke-linecap="round" stroke-linejoin="round"/>
    <path d="M470 252L524 204L586 260V346H470V252Z" fill="#F8FBFF"/>
    <rect x="506" y="264" width="20" height="36" rx="8" fill="#0F2E4C"/>
    <rect x="276" y="490" width="182" height="144" rx="26" fill="#F8FBFF"/>
    <rect x="486" y="490" width="250" height="144" rx="26" fill="#F8FBFF"/>
    <rect x="302" y="518" width="112" height="18" rx="9" fill="#E3EDF6"/>
    <rect x="302" y="552" width="124" height="18" rx="9" fill="#E8EEF7"/>
    <rect x="302" y="586" width="102" height="18" rx="9" fill="#E8EEF7"/>
    <rect x="512" y="518" width="132" height="18" rx="9" fill="#E3EDF6"/>
    <rect x="512" y="552" width="182" height="18" rx="9" fill="#E8EEF7"/>
    <rect x="512" y="588" width="154" height="18" rx="9" fill="#E8EEF7"/>
    <rect x="676" y="544" width="34" height="34" rx="12" fill="#EEF8EC"/>
    <path d="M688 560L694 566L702 552" stroke="#58B63F" stroke-width="5" stroke-linecap="round" stroke-linejoin="round"/>
  </g>
</svg>
